<svg width="32" height="25" viewBox="0 0 32 25" fill="none" xmlns="http://www.w3.org/2000/svg">
<path d="M12.4526 12.7759C12.7578 13.0811 13.2524 13.0811 13.5576 12.7759L14.1099 12.2236C14.415 11.9185 14.415 11.4238 14.1099 11.1187L12.3657 9.375L14.1094 7.63086C14.4146 7.32568 14.4146 6.83105 14.1094 6.52588L13.5571 5.97363C13.252 5.66846 12.7573 5.66846 12.4521 5.97363L9.60352 8.82227C9.29834 9.12744 9.29834 9.62207 9.60352 9.92725L12.4526 12.7759V12.7759ZM17.1406 12.2241L17.6929 12.7764C17.998 13.0815 18.4927 13.0815 18.7979 12.7764L21.6465 9.92773C21.9517 9.62256 21.9517 9.12793 21.6465 8.82275L18.7979 5.97412C18.4927 5.66895 17.998 5.66895 17.6929 5.97412L17.1406 6.52637C16.8354 6.83154 16.8354 7.32617 17.1406 7.63135L18.8843 9.375L17.1406 11.1191C16.8354 11.4243 16.8354 11.9189 17.1406 12.2241V12.2241ZM30.4688 20.3125H18.6299C18.5938 21.2798 17.9116 21.875 17.0312 21.875H14.0625C13.1499 21.875 12.4502 21.022 12.4624 20.3125H0.78125C0.351562 20.3125 0 20.6641 0 21.0938V21.875C0 23.5938 1.40625 25 3.125 25H28.125C29.8438 25 31.25 23.5938 31.25 21.875V21.0938C31.25 20.6641 30.8984 20.3125 30.4688 20.3125ZM28.125 2.34375C28.125 1.05469 27.0703 0 25.7812 0H5.46875C4.17969 0 3.125 1.05469 3.125 2.34375V18.75H28.125V2.34375ZM25 15.625H6.25V3.125H25V15.625Z" fill="#2F80ED"/>
</svg>
