<svg width="25" height="25" viewBox="0 0 25 25" fill="none" xmlns="http://www.w3.org/2000/svg">
<path d="M12.5014 1.04587e-06C5.59435 -0.00279194 0 5.58876 0 12.4902C0 17.9477 3.49961 22.5869 8.37337 24.2906C9.02972 24.4554 8.92917 23.9889 8.92917 23.6705V21.506C5.13909 21.9501 4.98548 19.442 4.73131 19.023C4.21741 18.146 3.00246 17.9226 3.36555 17.5036C4.22858 17.0595 5.10837 17.6154 6.12781 19.1208C6.86515 20.2128 8.30354 20.0285 9.03251 19.8469C9.19171 19.1906 9.53245 18.6041 10.0017 18.1488C6.07474 17.445 4.43805 15.0486 4.43805 12.1998C4.43805 10.8172 4.89331 9.54642 5.78706 8.52139C5.21729 6.83164 5.84013 5.38487 5.92392 5.16981C7.54664 5.02458 9.23361 6.3317 9.36487 6.43504C10.2866 6.18646 11.3395 6.05519 12.5182 6.05519C13.7024 6.05519 14.7581 6.19205 15.6882 6.44341C16.0038 6.20322 17.5679 5.08044 19.0761 5.21729C19.1571 5.43235 19.7659 6.8456 19.2297 8.51302C20.1346 9.54083 20.5955 10.8228 20.5955 12.2081C20.5955 15.0626 18.9476 17.4617 15.0095 18.1544C15.3468 18.4861 15.6146 18.8817 15.7973 19.3181C15.98 19.7545 16.074 20.2229 16.0736 20.696V23.8381C16.096 24.0895 16.0736 24.3381 16.4926 24.3381C21.4389 22.6707 25 17.998 25 12.493C25 5.58876 19.4029 1.04587e-06 12.5014 1.04587e-06Z" fill="#333333"/>
</svg>
