<svg width="110" height="67" viewBox="0 0 110 67" fill="none" xmlns="http://www.w3.org/2000/svg">
<path d="M19.0013 50.6602C19.2001 50.6602 19.3531 50.7596 19.4602 50.9585C19.5826 51.1421 19.6438 51.3792 19.6438 51.6699C19.6438 52.0218 19.5903 52.2972 19.4832 52.4961C19.3761 52.6949 19.2078 52.8709 18.9783 53.0239C18.0757 53.6205 16.6376 54.5997 14.664 55.9613C14.0674 59.1281 13.2948 61.6219 12.3462 63.4424C11.3977 65.263 10.1967 66.1733 8.74333 66.1733C7.96309 66.1733 7.32818 65.9285 6.83862 65.4389C6.34905 64.9647 6.10427 64.3374 6.10427 63.5572C6.10427 62.8381 6.26491 62.1114 6.58618 61.3771C6.90746 60.6427 7.50412 59.7936 8.37616 58.8298C9.2635 57.866 10.5104 56.7645 12.1167 55.5252L12.1856 55.0892C10.977 55.5941 9.79131 55.8465 8.62859 55.8465C6.91511 55.8465 5.40817 55.5176 4.10776 54.8597C2.80735 54.1866 1.79762 53.2381 1.07857 52.0141C0.359525 50.7902 0 49.3674 0 47.7457C0 45.4815 0.42837 43.485 1.28511 41.7562C2.14185 40.0121 3.31987 38.6658 4.81916 37.7173C6.33375 36.7535 8.02428 36.2715 9.89075 36.2715C11.6807 36.2715 13.0194 36.6923 13.9067 37.5337C14.8094 38.3599 15.2607 39.4614 15.2607 40.8383C15.2607 41.7409 15.0924 42.4676 14.7558 43.0184C14.4345 43.5538 13.9679 43.8216 13.356 43.8216C12.9429 43.8216 12.6063 43.7221 12.3462 43.5232C12.1014 43.3244 11.9791 43.049 11.9791 42.6971C11.9791 42.5441 12.0097 42.284 12.0708 41.9169C12.1626 41.4885 12.2085 41.1519 12.2085 40.9071C12.2085 40.2646 12.0097 39.7674 11.6119 39.4155C11.2294 39.0636 10.5792 38.8877 9.66127 38.8877C8.54445 38.8877 7.50412 39.2089 6.54029 39.8515C5.59175 40.4941 4.82681 41.4579 4.24545 42.743C3.66409 44.0128 3.37341 45.5427 3.37341 47.3327C3.37341 49.1685 3.87063 50.5913 4.86506 51.6011C5.87478 52.5955 7.32818 53.0927 9.22525 53.0927C10.2809 53.0927 11.3824 52.8556 12.5298 52.3813L12.8511 49.5816H10.5104C10.082 49.5816 9.75306 49.4822 9.52358 49.2833C9.29409 49.0691 9.17935 48.7249 9.17935 48.2506C9.17935 47.8222 9.29409 47.4857 9.52358 47.2409C9.75306 46.9961 10.059 46.8737 10.4415 46.8737H14.7329C15.0694 46.8737 15.3448 46.9884 15.559 47.2179C15.7885 47.4321 15.8803 47.7457 15.8344 48.1588C15.7885 48.6484 15.6355 49.7575 15.3754 51.4863L15.123 53.2304C16.3469 52.3125 17.4637 51.5169 18.4734 50.8438C18.6723 50.7214 18.8483 50.6602 19.0013 50.6602ZM8.99576 63.9473C9.39354 63.9473 9.82956 63.496 10.3038 62.5933C10.7781 61.6907 11.2218 60.2373 11.6348 58.2332C10.4721 59.2276 9.63067 60.1226 9.11051 60.9181C8.60564 61.729 8.35321 62.4404 8.35321 63.0523C8.35321 63.649 8.5674 63.9473 8.99576 63.9473Z" fill="#333333"/>
<path d="M28.2444 50.6143C28.4433 50.6143 28.5963 50.7061 28.7034 50.8897C28.8258 51.0733 28.887 51.3257 28.887 51.647C28.887 52.2589 28.7416 52.7332 28.451 53.0698C27.7931 53.8806 27.0741 54.5461 26.2938 55.0663C25.5136 55.5864 24.6186 55.8465 23.6089 55.8465C20.4879 55.8465 18.9274 53.6511 18.9274 49.2603C18.9274 48.5872 18.9503 47.9064 18.9962 47.2179H18.1012C17.6423 47.2179 17.3287 47.1338 17.1604 46.9655C17.0074 46.7972 16.9309 46.5295 16.9309 46.1623C16.9309 45.3056 17.2751 44.8772 17.9636 44.8772H19.2716C19.5317 43.1943 19.9295 41.6568 20.4649 40.2646C21.0004 38.8724 21.643 37.7632 22.3926 36.9371C23.1575 36.1109 23.976 35.6978 24.8481 35.6978C25.4906 35.6978 25.9955 35.9809 26.3627 36.5469C26.7298 37.113 26.9134 37.8244 26.9134 38.6811C26.9134 41.0525 25.919 43.1178 23.9301 44.8772H26.5004C26.7451 44.8772 26.9211 44.9307 27.0282 45.0378C27.1353 45.1449 27.1888 45.3438 27.1888 45.6345C27.1888 46.6901 26.3244 47.2179 24.5956 47.2179H21.7959C21.7653 47.9829 21.75 48.5795 21.75 49.0079C21.75 50.599 21.9336 51.7158 22.3008 52.3584C22.6833 53.0009 23.2799 53.3222 24.0908 53.3222C24.7486 53.3222 25.33 53.1233 25.8349 52.7255C26.3397 52.3278 26.9364 51.7311 27.6248 50.9356C27.8084 50.7214 28.0149 50.6143 28.2444 50.6143ZM24.2285 37.9009C23.999 37.9009 23.7389 38.1916 23.4482 38.7729C23.1728 39.339 22.9051 40.1345 22.645 41.1596C22.4002 42.1693 22.1937 43.2938 22.0254 44.533C22.9281 43.7527 23.6012 42.8807 24.0449 41.9169C24.5038 40.9377 24.7333 40.0504 24.7333 39.2548C24.7333 38.3522 24.565 37.9009 24.2285 37.9009Z" fill="#333333"/>
<path d="M30.0247 43.5232C29.3822 43.5232 28.9003 43.3779 28.579 43.0872C28.2577 42.7812 28.0971 42.3605 28.0971 41.8251C28.0971 41.2896 28.3036 40.8459 28.7167 40.4941C29.145 40.1269 29.6728 39.9433 30.3001 39.9433C30.8662 39.9433 31.3251 40.081 31.677 40.3564C32.0289 40.6317 32.2048 41.0219 32.2048 41.5267C32.2048 42.1387 32.0059 42.6283 31.6082 42.9954C31.2104 43.3473 30.6826 43.5232 30.0247 43.5232ZM29.8411 55.8465C28.8467 55.8465 28.12 55.4946 27.661 54.7909C27.2174 54.0871 26.9955 53.1539 26.9955 51.9912C26.9955 51.3027 27.0797 50.4231 27.248 49.3521C27.4316 48.2659 27.661 47.2562 27.9364 46.3229C28.0741 45.8334 28.2577 45.4968 28.4872 45.3132C28.7167 45.1296 29.0838 45.0378 29.5887 45.0378C30.3689 45.0378 30.7591 45.2979 30.7591 45.8181C30.7591 46.2006 30.6137 47.0879 30.3231 48.4801C29.9559 50.163 29.7723 51.3027 29.7723 51.8994C29.7723 52.3584 29.8335 52.7102 29.9559 52.955C30.0783 53.1998 30.2848 53.3222 30.5755 53.3222C30.8509 53.3222 31.1951 53.131 31.6082 52.7485C32.0212 52.366 32.572 51.7617 33.2604 50.9356C33.444 50.7214 33.6506 50.6143 33.8801 50.6143C34.0789 50.6143 34.2319 50.7061 34.339 50.8897C34.4614 51.0733 34.5226 51.3257 34.5226 51.647C34.5226 52.2589 34.3773 52.7332 34.0866 53.0698C32.572 54.9209 31.1568 55.8465 29.8411 55.8465Z" fill="#333333"/>
<path d="M34.2953 55.8465C33.7139 55.8465 33.3008 55.5405 33.0561 54.9286C32.8266 54.3166 32.7118 53.3375 32.7118 51.9912C32.7118 50.0023 32.9949 48.1129 33.5609 46.3229C33.6986 45.8793 33.9205 45.558 34.2264 45.3591C34.5477 45.1449 34.9914 45.0378 35.5574 45.0378C35.8634 45.0378 36.0776 45.0761 36.2 45.1526C36.3224 45.2291 36.3836 45.3744 36.3836 45.5886C36.3836 45.8334 36.2688 46.3841 36.0393 47.2409C35.8864 47.8528 35.764 48.3883 35.6722 48.8473C35.5804 49.3062 35.5039 49.8723 35.4427 50.5454C35.9476 49.2297 36.5136 48.1588 37.1409 47.3327C37.7681 46.5065 38.3801 45.9175 38.9767 45.5656C39.5887 45.2138 40.1471 45.0378 40.652 45.0378C41.6464 45.0378 42.1436 45.535 42.1436 46.5295C42.1436 47.1261 41.9753 48.2047 41.6388 49.7652C41.3481 51.0962 41.2027 51.9759 41.2027 52.4043C41.2027 53.0162 41.4246 53.3222 41.8682 53.3222C42.1742 53.3222 42.5337 53.1386 42.9468 52.7714C43.3752 52.389 43.9412 51.777 44.645 50.9356C44.8286 50.7214 45.0351 50.6143 45.2646 50.6143C45.4635 50.6143 45.6165 50.7061 45.7236 50.8897C45.846 51.0733 45.9072 51.3257 45.9072 51.647C45.9072 52.2589 45.7618 52.7332 45.4711 53.0698C44.8133 53.8806 44.1019 54.5461 43.3369 55.0663C42.5873 55.5864 41.7305 55.8465 40.7667 55.8465C39.9865 55.8465 39.3975 55.6247 38.9997 55.181C38.6019 54.722 38.403 54.0642 38.403 53.2075C38.403 52.7791 38.5101 52.0141 38.7243 50.9126C38.9232 49.9488 39.0226 49.2833 39.0226 48.9161C39.0226 48.6713 38.9385 48.5489 38.7702 48.5489C38.5713 48.5489 38.2883 48.809 37.9211 49.3292C37.5692 49.834 37.2021 50.5072 36.8196 51.3486C36.4524 52.1901 36.1541 53.0774 35.9246 54.0107C35.7563 54.7297 35.5574 55.2193 35.3279 55.4793C35.1138 55.7241 34.7695 55.8465 34.2953 55.8465Z" fill="#333333"/>
<path d="M57.0852 50.6143C57.284 50.6143 57.437 50.7061 57.5441 50.8897C57.6665 51.0733 57.7277 51.3257 57.7277 51.647C57.7277 52.2589 57.5824 52.7332 57.2917 53.0698C56.6644 53.8347 55.976 54.4926 55.2263 55.0433C54.4767 55.5788 53.7347 55.8465 53.0004 55.8465C51.8376 55.8465 50.9503 55.1657 50.3383 53.8041C49.6958 54.615 49.1297 55.1581 48.6402 55.4334C48.1659 55.7088 47.6075 55.8465 46.9649 55.8465C46.0317 55.8465 45.2591 55.5023 44.6471 54.8138C44.0505 54.1101 43.7522 53.1998 43.7522 52.083C43.7522 50.8591 44.0122 49.727 44.5324 48.6866C45.0526 47.631 45.764 46.7743 46.6666 46.1164C47.5845 45.4433 48.6096 45.0455 49.7417 44.9231C50.0324 41.9551 50.5831 39.4231 51.394 37.3272C52.2201 35.2159 53.2987 34.1603 54.6297 34.1603C55.2875 34.1603 55.8307 34.4586 56.259 35.0553C56.7027 35.6519 56.9245 36.5546 56.9245 37.7632C56.9245 39.4767 56.5038 41.4808 55.6624 43.7757C54.8209 46.0705 53.6965 48.4265 52.289 50.8438C52.3502 51.7311 52.4802 52.366 52.6791 52.7485C52.8933 53.131 53.161 53.3222 53.4823 53.3222C53.8953 53.3222 54.3161 53.1386 54.7444 52.7714C55.1728 52.4043 55.7465 51.7923 56.4656 50.9356C56.6491 50.7214 56.8557 50.6143 57.0852 50.6143ZM54.3773 36.4092C54.0866 36.4092 53.7959 36.9294 53.5052 37.9697C53.2145 38.9948 52.9621 40.3411 52.7479 42.0086C52.549 43.6762 52.4037 45.4203 52.3119 47.2409C54.0254 43.5079 54.8821 40.5093 54.8821 38.2451C54.8821 37.6638 54.8286 37.2124 54.7215 36.8912C54.6297 36.5699 54.5149 36.4092 54.3773 36.4092ZM47.7681 53.5287C48.0588 53.5287 48.3495 53.414 48.6402 53.1845C48.9308 52.9397 49.298 52.4961 49.7417 51.8535C49.5887 51.0274 49.5122 50.1018 49.5122 49.0767C49.5122 48.7096 49.5275 48.1129 49.5581 47.2868C48.7167 47.5469 48.0129 48.1129 47.4468 48.985C46.8961 49.8417 46.6207 50.7979 46.6207 51.8535C46.6207 52.9703 47.0032 53.5287 47.7681 53.5287Z" fill="#333333"/>
<path d="M59.7391 55.8465C58.8365 55.8465 58.0639 55.6247 57.4213 55.181C56.7941 54.722 56.3198 54.1254 55.9985 53.391C55.6772 52.6567 55.5166 51.8688 55.5166 51.0274C55.5166 49.8646 55.7308 48.832 56.1592 47.9293C56.6028 47.0114 57.1995 46.3 57.9491 45.7951C58.6988 45.275 59.5402 45.0149 60.4735 45.0149C61.3761 45.0149 62.1487 45.2444 62.7912 45.7033C63.4338 46.147 63.9157 46.736 64.237 47.4704C64.5583 48.2047 64.7189 48.9926 64.7189 49.834C64.7189 50.9968 64.4971 52.0371 64.0534 52.955C63.6097 53.8577 63.0054 54.5691 62.2405 55.0892C61.4908 55.5941 60.657 55.8465 59.7391 55.8465ZM59.9915 53.3681C60.5117 53.3681 60.9477 53.0851 61.2996 52.519C61.6668 51.9529 61.8504 51.1268 61.8504 50.0406C61.8504 49.1991 61.6974 48.5642 61.3914 48.1359C61.0854 47.7075 60.7182 47.4933 60.2899 47.4933C59.7391 47.4933 59.2801 47.7763 58.913 48.3424C58.5611 48.8932 58.3852 49.7193 58.3852 50.8208C58.3852 51.6929 58.5381 52.3354 58.8441 52.7485C59.1501 53.1616 59.5326 53.3681 59.9915 53.3681Z" fill="#333333"/>
<path d="M78.2991 55.8465C77.4118 55.8465 76.4097 55.77 75.2929 55.617C74.681 55.5405 74.2602 55.3799 74.0307 55.1351C73.8013 54.8903 73.7018 54.4926 73.7324 53.9418C73.8395 52.4272 74.0919 50.5607 74.4897 48.3424C74.8875 46.1088 75.3694 43.9593 75.9355 41.8939C76.0426 41.5114 76.2567 41.2437 76.578 41.0907C76.8993 40.9377 77.32 40.8612 77.8402 40.8612C78.7734 40.8612 79.24 41.1213 79.24 41.6415C79.24 41.8557 79.1941 42.1004 79.1023 42.3758C78.7046 43.5997 78.3068 45.2444 77.909 47.3097C77.5113 49.3598 77.2282 51.318 77.0599 53.1845C77.5189 53.2304 78.0391 53.2533 78.6204 53.2533C81.2977 53.2533 83.2942 52.4425 84.6099 50.8208C85.941 49.1991 86.6065 47.0343 86.6065 44.3264C86.6065 42.5059 86.0863 41.0984 85.046 40.1039C84.0056 39.1095 82.5369 38.6123 80.6399 38.6123C79.416 38.6123 78.1997 38.8035 76.9911 39.186C75.7978 39.5685 74.7192 40.0733 73.7554 40.7006C73.5565 40.8383 73.3423 40.9071 73.1128 40.9071C72.8527 40.9071 72.6462 40.8 72.4932 40.5858C72.3402 40.3564 72.2637 40.081 72.2637 39.7597C72.2637 39.3925 72.3249 39.0942 72.4473 38.8647C72.5697 38.6199 72.7762 38.3981 73.0669 38.1992C74.1225 37.4802 75.3618 36.9371 76.7846 36.5699C78.2074 36.1874 79.5766 35.9962 80.8923 35.9962C82.7588 35.9962 84.3728 36.3251 85.7344 36.983C87.096 37.6255 88.144 38.574 88.8783 39.8286C89.6127 41.0831 89.9799 42.5977 89.9799 44.3723C89.9799 46.6825 89.5209 48.7019 88.603 50.4307C87.685 52.1442 86.3464 53.4752 84.587 54.4237C82.8276 55.3723 80.7317 55.8465 78.2991 55.8465Z" fill="#333333"/>
<path d="M101.751 50.6143C101.95 50.6143 102.103 50.7061 102.21 50.8897C102.332 51.0733 102.394 51.3257 102.394 51.647C102.394 52.2589 102.248 52.7332 101.957 53.0698C101.391 53.7582 100.588 54.3931 99.5479 54.9745C98.5229 55.5558 97.4214 55.8465 96.2433 55.8465C94.637 55.8465 93.3901 55.4105 92.5028 54.5385C91.6154 53.6664 91.1717 52.4731 91.1717 50.9585C91.1717 49.9029 91.3936 48.9238 91.8373 48.0211C92.2809 47.1032 92.8929 46.3765 93.6731 45.841C94.4687 45.3056 95.3637 45.0378 96.3581 45.0378C97.2454 45.0378 97.9568 45.3056 98.4923 45.841C99.0277 46.3612 99.2955 47.0726 99.2955 47.9752C99.2955 49.0308 98.913 49.9411 98.1481 50.7061C97.3984 51.4557 96.121 52.0524 94.3157 52.4961C94.6982 53.1998 95.4249 53.5517 96.4958 53.5517C97.1842 53.5517 97.9645 53.3145 98.8365 52.8403C99.7238 52.3507 100.489 51.7158 101.131 50.9356C101.315 50.7214 101.521 50.6143 101.751 50.6143ZM95.968 47.2868C95.4019 47.2868 94.92 47.6157 94.5222 48.2736C94.1397 48.9314 93.9485 49.727 93.9485 50.6602V50.7061C94.8511 50.4919 95.5625 50.1706 96.0827 49.7423C96.6029 49.3139 96.863 48.8167 96.863 48.2506C96.863 47.9599 96.7788 47.7304 96.6105 47.5622C96.4575 47.3786 96.2433 47.2868 95.968 47.2868Z" fill="#333333"/>
<path d="M103.161 55.8465C102.519 55.8465 102.014 55.6094 101.647 55.1351C101.28 54.6456 101.05 53.8653 100.958 52.7944C100.775 50.6525 100.683 48.7784 100.683 47.172V46.3688C100.698 45.864 100.836 45.5121 101.096 45.3132C101.356 45.1143 101.746 45.0149 102.266 45.0149C102.664 45.0149 102.955 45.1067 103.138 45.2903C103.337 45.4586 103.437 45.7492 103.437 46.1623C103.437 47.9217 103.544 50.2089 103.758 53.0239C104.416 51.8917 104.982 50.8591 105.456 49.9258C105.946 48.9773 106.474 47.7304 107.04 46.1853C107.208 45.7263 107.43 45.4203 107.705 45.2673C107.981 45.099 108.325 45.0149 108.738 45.0149C109.579 45.0149 110 45.2826 110 45.8181C110 46.0017 109.939 46.2541 109.816 46.5754C108.577 49.4669 107.407 51.8 106.305 53.5746C105.77 54.4467 105.257 55.0433 104.768 55.3646C104.278 55.6859 103.743 55.8465 103.161 55.8465Z" fill="#333333"/>
<path d="M51.3432 13.4028C51.6634 13.7229 52.1823 13.7229 52.5024 13.4028L53.0818 12.8234C53.4019 12.5033 53.4019 11.9844 53.0818 11.6642L51.2521 9.83502L53.0813 8.0053C53.4014 7.68514 53.4014 7.16624 53.0813 6.84609L52.5019 6.26675C52.1818 5.9466 51.6629 5.9466 51.3427 6.26675L48.3543 9.25516C48.0342 9.57531 48.0342 10.0942 48.3543 10.4144L51.3432 13.4028ZM56.2613 12.8239L56.8406 13.4033C57.1608 13.7234 57.6797 13.7234 57.9998 13.4033L60.9882 10.4149C61.3084 10.0947 61.3084 9.57582 60.9882 9.25567L57.9998 6.26726C57.6797 5.94711 57.1608 5.94711 56.8406 6.26726L56.2613 6.84661C55.9411 7.16676 55.9411 7.68566 56.2613 8.00581L58.0905 9.83502L56.2613 11.6647C55.9411 11.9849 55.9411 12.5038 56.2613 12.8239ZM70.2434 21.3092H57.8236C57.7857 22.324 57.0701 22.9484 56.1465 22.9484H53.0321C52.0747 22.9484 51.3407 22.0535 51.3535 21.3092H39.0992C38.6484 21.3092 38.2796 21.678 38.2796 22.1288V22.9484C38.2796 24.7515 39.7548 26.2267 41.5579 26.2267H67.7846C69.5877 26.2267 71.063 24.7515 71.063 22.9484V22.1288C71.063 21.678 70.6942 21.3092 70.2434 21.3092ZM67.7846 2.45875C67.7846 1.10644 66.6782 0 65.3259 0H44.0167C42.6643 0 41.5579 1.10644 41.5579 2.45875V19.67H67.7846V2.45875ZM64.5063 16.3917H44.8363V3.27834H64.5063V16.3917Z" fill="#333333"/>
</svg>
