<svg width="68" height="41" viewBox="0 0 68 41" fill="none" xmlns="http://www.w3.org/2000/svg">
<path d="M11.592 30.906C11.7133 30.906 11.8067 30.9667 11.872 31.088C11.9467 31.2 11.984 31.3447 11.984 31.522C11.984 31.7367 11.9513 31.9047 11.886 32.026C11.8207 32.1473 11.718 32.2547 11.578 32.348C11.0273 32.712 10.15 33.3093 8.946 34.14C8.582 36.072 8.11067 37.5933 7.532 38.704C6.95333 39.8147 6.22067 40.37 5.334 40.37C4.858 40.37 4.47067 40.2207 4.172 39.922C3.87333 39.6327 3.724 39.25 3.724 38.774C3.724 38.3353 3.822 37.892 4.018 37.444C4.214 36.996 4.578 36.478 5.11 35.89C5.65133 35.302 6.412 34.63 7.392 33.874L7.434 33.608C6.69667 33.916 5.97333 34.07 5.264 34.07C4.21867 34.07 3.29933 33.8693 2.506 33.468C1.71267 33.0573 1.09667 32.4787 0.658 31.732C0.219333 30.9853 0 30.1173 0 29.128C0 27.7467 0.261333 26.5287 0.784 25.474C1.30667 24.41 2.02533 23.5887 2.94 23.01C3.864 22.422 4.89533 22.128 6.034 22.128C7.126 22.128 7.94267 22.3847 8.484 22.898C9.03467 23.402 9.31 24.074 9.31 24.914C9.31 25.4647 9.20733 25.908 9.002 26.244C8.806 26.5707 8.52133 26.734 8.148 26.734C7.896 26.734 7.69067 26.6733 7.532 26.552C7.38267 26.4307 7.308 26.2627 7.308 26.048C7.308 25.9547 7.32667 25.796 7.364 25.572C7.42 25.3107 7.448 25.1053 7.448 24.956C7.448 24.564 7.32667 24.2607 7.084 24.046C6.85067 23.8313 6.454 23.724 5.894 23.724C5.21267 23.724 4.578 23.92 3.99 24.312C3.41133 24.704 2.94467 25.292 2.59 26.076C2.23533 26.8507 2.058 27.784 2.058 28.876C2.058 29.996 2.36133 30.864 2.968 31.48C3.584 32.0867 4.47067 32.39 5.628 32.39C6.272 32.39 6.944 32.2453 7.644 31.956L7.84 30.248H6.412C6.15067 30.248 5.95 30.1873 5.81 30.066C5.67 29.9353 5.6 29.7253 5.6 29.436C5.6 29.1747 5.67 28.9693 5.81 28.82C5.95 28.6707 6.13667 28.596 6.37 28.596H8.988C9.19333 28.596 9.36133 28.666 9.492 28.806C9.632 28.9367 9.688 29.128 9.66 29.38C9.632 29.6787 9.53867 30.3553 9.38 31.41L9.226 32.474C9.97267 31.914 10.654 31.4287 11.27 31.018C11.3913 30.9433 11.4987 30.906 11.592 30.906ZM5.488 39.012C5.73067 39.012 5.99667 38.7367 6.286 38.186C6.57533 37.6353 6.846 36.7487 7.098 35.526C6.38867 36.1327 5.87533 36.6787 5.558 37.164C5.25 37.6587 5.096 38.0927 5.096 38.466C5.096 38.83 5.22667 39.012 5.488 39.012Z" fill="#333333"/>
<path d="M17.2309 30.878C17.3523 30.878 17.4456 30.934 17.5109 31.046C17.5856 31.158 17.6229 31.312 17.6229 31.508C17.6229 31.8813 17.5343 32.1707 17.3569 32.376C16.9556 32.8707 16.5169 33.2767 16.0409 33.594C15.5649 33.9113 15.0189 34.07 14.4029 34.07C12.4989 34.07 11.5469 32.7307 11.5469 30.052C11.5469 29.6413 11.5609 29.226 11.5889 28.806H11.0429C10.7629 28.806 10.5716 28.7547 10.4689 28.652C10.3756 28.5493 10.3289 28.386 10.3289 28.162C10.3289 27.6393 10.5389 27.378 10.9589 27.378H11.7569C11.9156 26.3513 12.1583 25.4133 12.4849 24.564C12.8116 23.7147 13.2036 23.038 13.6609 22.534C14.1276 22.03 14.6269 21.778 15.1589 21.778C15.5509 21.778 15.8589 21.9507 16.0829 22.296C16.3069 22.6413 16.4189 23.0753 16.4189 23.598C16.4189 25.0447 15.8123 26.3047 14.5989 27.378H16.1669C16.3163 27.378 16.4236 27.4107 16.4889 27.476C16.5543 27.5413 16.5869 27.6627 16.5869 27.84C16.5869 28.484 16.0596 28.806 15.0049 28.806H13.2969C13.2783 29.2727 13.2689 29.6367 13.2689 29.898C13.2689 30.8687 13.3809 31.55 13.6049 31.942C13.8383 32.334 14.2023 32.53 14.6969 32.53C15.0983 32.53 15.4529 32.4087 15.7609 32.166C16.0689 31.9233 16.4329 31.5593 16.8529 31.074C16.9649 30.9433 17.0909 30.878 17.2309 30.878ZM14.7809 23.122C14.6409 23.122 14.4823 23.2993 14.3049 23.654C14.1369 23.9993 13.9736 24.4847 13.8149 25.11C13.6656 25.726 13.5396 26.412 13.4369 27.168C13.9876 26.692 14.3983 26.16 14.6689 25.572C14.9489 24.9747 15.0889 24.4333 15.0889 23.948C15.0889 23.3973 14.9863 23.122 14.7809 23.122Z" fill="#333333"/>
<path d="M18.317 26.552C17.925 26.552 17.631 26.4633 17.435 26.286C17.239 26.0993 17.141 25.8427 17.141 25.516C17.141 25.1893 17.267 24.9187 17.519 24.704C17.7804 24.48 18.1024 24.368 18.485 24.368C18.8304 24.368 19.1104 24.452 19.325 24.62C19.5397 24.788 19.647 25.026 19.647 25.334C19.647 25.7073 19.5257 26.006 19.283 26.23C19.0404 26.4447 18.7184 26.552 18.317 26.552ZM18.205 34.07C17.5984 34.07 17.155 33.8553 16.875 33.426C16.6044 32.9967 16.469 32.4273 16.469 31.718C16.469 31.298 16.5204 30.7613 16.623 30.108C16.735 29.4453 16.875 28.8293 17.043 28.26C17.127 27.9613 17.239 27.756 17.379 27.644C17.519 27.532 17.743 27.476 18.051 27.476C18.527 27.476 18.765 27.6347 18.765 27.952C18.765 28.1853 18.6764 28.7267 18.499 29.576C18.275 30.6027 18.163 31.298 18.163 31.662C18.163 31.942 18.2004 32.1567 18.275 32.306C18.3497 32.4553 18.4757 32.53 18.653 32.53C18.821 32.53 19.031 32.4133 19.283 32.18C19.535 31.9467 19.871 31.578 20.291 31.074C20.403 30.9433 20.529 30.878 20.669 30.878C20.7904 30.878 20.8837 30.934 20.949 31.046C21.0237 31.158 21.061 31.312 21.061 31.508C21.061 31.8813 20.9724 32.1707 20.795 32.376C19.871 33.5053 19.0077 34.07 18.205 34.07Z" fill="#333333"/>
<path d="M20.9223 34.07C20.5677 34.07 20.3157 33.8833 20.1663 33.51C20.0263 33.1367 19.9563 32.5393 19.9563 31.718C19.9563 30.5047 20.129 29.352 20.4743 28.26C20.5583 27.9893 20.6937 27.7933 20.8803 27.672C21.0763 27.5413 21.347 27.476 21.6923 27.476C21.879 27.476 22.0097 27.4993 22.0843 27.546C22.159 27.5927 22.1963 27.6813 22.1963 27.812C22.1963 27.9613 22.1263 28.2973 21.9863 28.82C21.893 29.1933 21.8183 29.52 21.7623 29.8C21.7063 30.08 21.6597 30.4253 21.6223 30.836C21.9303 30.0333 22.2757 29.38 22.6583 28.876C23.041 28.372 23.4143 28.0127 23.7783 27.798C24.1517 27.5833 24.4923 27.476 24.8003 27.476C25.407 27.476 25.7103 27.7793 25.7103 28.386C25.7103 28.75 25.6077 29.408 25.4023 30.36C25.225 31.172 25.1363 31.7087 25.1363 31.97C25.1363 32.3433 25.2717 32.53 25.5423 32.53C25.729 32.53 25.9483 32.418 26.2003 32.194C26.4617 31.9607 26.807 31.5873 27.2363 31.074C27.3483 30.9433 27.4743 30.878 27.6143 30.878C27.7357 30.878 27.829 30.934 27.8943 31.046C27.969 31.158 28.0063 31.312 28.0063 31.508C28.0063 31.8813 27.9177 32.1707 27.7403 32.376C27.339 32.8707 26.905 33.2767 26.4383 33.594C25.981 33.9113 25.4583 34.07 24.8703 34.07C24.3943 34.07 24.035 33.9347 23.7923 33.664C23.5497 33.384 23.4283 32.9827 23.4283 32.46C23.4283 32.1987 23.4937 31.732 23.6243 31.06C23.7457 30.472 23.8063 30.066 23.8063 29.842C23.8063 29.6927 23.755 29.618 23.6523 29.618C23.531 29.618 23.3583 29.7767 23.1343 30.094C22.9197 30.402 22.6957 30.8127 22.4623 31.326C22.2383 31.8393 22.0563 32.3807 21.9163 32.95C21.8137 33.3887 21.6923 33.6873 21.5523 33.846C21.4217 33.9953 21.2117 34.07 20.9223 34.07Z" fill="#333333"/>
<path d="M34.8257 30.878C34.947 30.878 35.0403 30.934 35.1057 31.046C35.1803 31.158 35.2177 31.312 35.2177 31.508C35.2177 31.8813 35.129 32.1707 34.9517 32.376C34.569 32.8427 34.149 33.244 33.6917 33.58C33.2343 33.9067 32.7817 34.07 32.3337 34.07C31.6243 34.07 31.083 33.6547 30.7097 32.824C30.3177 33.3187 29.9723 33.65 29.6737 33.818C29.3843 33.986 29.0437 34.07 28.6517 34.07C28.0823 34.07 27.611 33.86 27.2377 33.44C26.8737 33.0107 26.6917 32.4553 26.6917 31.774C26.6917 31.0273 26.8503 30.3367 27.1677 29.702C27.485 29.058 27.919 28.5353 28.4697 28.134C29.0297 27.7233 29.655 27.4807 30.3457 27.406C30.523 25.5953 30.859 24.0507 31.3537 22.772C31.8577 21.484 32.5157 20.84 33.3277 20.84C33.729 20.84 34.0603 21.022 34.3217 21.386C34.5923 21.75 34.7277 22.3007 34.7277 23.038C34.7277 24.0833 34.471 25.306 33.9577 26.706C33.4443 28.106 32.7583 29.5433 31.8997 31.018C31.937 31.5593 32.0163 31.9467 32.1377 32.18C32.2683 32.4133 32.4317 32.53 32.6277 32.53C32.8797 32.53 33.1363 32.418 33.3977 32.194C33.659 31.97 34.009 31.5967 34.4477 31.074C34.5597 30.9433 34.6857 30.878 34.8257 30.878ZM33.1737 22.212C32.9963 22.212 32.819 22.5293 32.6417 23.164C32.4643 23.7893 32.3103 24.6107 32.1797 25.628C32.0583 26.6453 31.9697 27.7093 31.9137 28.82C32.959 26.5427 33.4817 24.7133 33.4817 23.332C33.4817 22.9773 33.449 22.702 33.3837 22.506C33.3277 22.31 33.2577 22.212 33.1737 22.212ZM29.1417 32.656C29.319 32.656 29.4963 32.586 29.6737 32.446C29.851 32.2967 30.075 32.026 30.3457 31.634C30.2523 31.13 30.2057 30.5653 30.2057 29.94C30.2057 29.716 30.215 29.352 30.2337 28.848C29.7203 29.0067 29.291 29.352 28.9457 29.884C28.6097 30.4067 28.4417 30.99 28.4417 31.634C28.4417 32.3153 28.675 32.656 29.1417 32.656Z" fill="#333333"/>
<path d="M36.4447 34.07C35.8941 34.07 35.4227 33.9347 35.0307 33.664C34.6481 33.384 34.3587 33.02 34.1627 32.572C33.9667 32.124 33.8687 31.6433 33.8687 31.13C33.8687 30.4207 33.9994 29.7907 34.2607 29.24C34.5314 28.68 34.8954 28.246 35.3527 27.938C35.8101 27.6207 36.3234 27.462 36.8927 27.462C37.4434 27.462 37.9147 27.602 38.3067 27.882C38.6987 28.1527 38.9927 28.512 39.1887 28.96C39.3847 29.408 39.4827 29.8887 39.4827 30.402C39.4827 31.1113 39.3474 31.746 39.0767 32.306C38.8061 32.8567 38.4374 33.2907 37.9707 33.608C37.5134 33.916 37.0047 34.07 36.4447 34.07ZM36.5987 32.558C36.9161 32.558 37.1821 32.3853 37.3967 32.04C37.6207 31.6947 37.7327 31.1907 37.7327 30.528C37.7327 30.0147 37.6394 29.6273 37.4527 29.366C37.2661 29.1047 37.0421 28.974 36.7807 28.974C36.4447 28.974 36.1647 29.1467 35.9407 29.492C35.7261 29.828 35.6187 30.332 35.6187 31.004C35.6187 31.536 35.7121 31.928 35.8987 32.18C36.0854 32.432 36.3187 32.558 36.5987 32.558Z" fill="#333333"/>
<path d="M47.7676 34.07C47.2262 34.07 46.6149 34.0233 45.9336 33.93C45.5602 33.8833 45.3036 33.7853 45.1636 33.636C45.0236 33.4867 44.9629 33.244 44.9816 32.908C45.0469 31.984 45.2009 30.8453 45.4436 29.492C45.6862 28.1293 45.9802 26.818 46.3256 25.558C46.3909 25.3247 46.5216 25.1613 46.7176 25.068C46.9136 24.9747 47.1702 24.928 47.4876 24.928C48.0569 24.928 48.3416 25.0867 48.3416 25.404C48.3416 25.5347 48.3136 25.684 48.2576 25.852C48.0149 26.5987 47.7722 27.602 47.5296 28.862C47.2869 30.1127 47.1142 31.3073 47.0116 32.446C47.2916 32.474 47.6089 32.488 47.9636 32.488C49.5969 32.488 50.8149 31.9933 51.6176 31.004C52.4296 30.0147 52.8356 28.694 52.8356 27.042C52.8356 25.9313 52.5182 25.0727 51.8836 24.466C51.2489 23.8593 50.3529 23.556 49.1956 23.556C48.4489 23.556 47.7069 23.6727 46.9696 23.906C46.2416 24.1393 45.5836 24.4473 44.9956 24.83C44.8742 24.914 44.7436 24.956 44.6036 24.956C44.4449 24.956 44.3189 24.8907 44.2256 24.76C44.1322 24.62 44.0856 24.452 44.0856 24.256C44.0856 24.032 44.1229 23.85 44.1976 23.71C44.2722 23.5607 44.3982 23.4253 44.5756 23.304C45.2196 22.8653 45.9756 22.534 46.8436 22.31C47.7116 22.0767 48.5469 21.96 49.3496 21.96C50.4882 21.96 51.4729 22.1607 52.3036 22.562C53.1342 22.954 53.7736 23.5327 54.2216 24.298C54.6696 25.0633 54.8936 25.9873 54.8936 27.07C54.8936 28.4793 54.6136 29.7113 54.0536 30.766C53.4936 31.8113 52.6769 32.6233 51.6036 33.202C50.5302 33.7807 49.2516 34.07 47.7676 34.07Z" fill="#333333"/>
<path d="M62.0747 30.878C62.196 30.878 62.2894 30.934 62.3547 31.046C62.4294 31.158 62.4667 31.312 62.4667 31.508C62.4667 31.8813 62.378 32.1707 62.2007 32.376C61.8554 32.796 61.3654 33.1833 60.7307 33.538C60.1054 33.8927 59.4334 34.07 58.7147 34.07C57.7347 34.07 56.974 33.804 56.4327 33.272C55.8914 32.74 55.6207 32.012 55.6207 31.088C55.6207 30.444 55.756 29.8467 56.0267 29.296C56.2974 28.736 56.6707 28.2927 57.1467 27.966C57.632 27.6393 58.178 27.476 58.7847 27.476C59.326 27.476 59.76 27.6393 60.0867 27.966C60.4134 28.2833 60.5767 28.7173 60.5767 29.268C60.5767 29.912 60.3434 30.4673 59.8767 30.934C59.4194 31.3913 58.64 31.7553 57.5387 32.026C57.772 32.4553 58.2154 32.67 58.8687 32.67C59.2887 32.67 59.7647 32.5253 60.2967 32.236C60.838 31.9373 61.3047 31.55 61.6967 31.074C61.8087 30.9433 61.9347 30.878 62.0747 30.878ZM58.5467 28.848C58.2014 28.848 57.9074 29.0487 57.6647 29.45C57.4314 29.8513 57.3147 30.3367 57.3147 30.906V30.934C57.8654 30.8033 58.2994 30.6073 58.6167 30.346C58.934 30.0847 59.0927 29.7813 59.0927 29.436C59.0927 29.2587 59.0414 29.1187 58.9387 29.016C58.8454 28.904 58.7147 28.848 58.5467 28.848Z" fill="#333333"/>
<path d="M62.9351 34.07C62.5431 34.07 62.2351 33.9253 62.0111 33.636C61.7871 33.3373 61.6471 32.8613 61.5911 32.208C61.4791 30.9013 61.4231 29.758 61.4231 28.778V28.288C61.4325 27.98 61.5165 27.7653 61.6751 27.644C61.8338 27.5227 62.0718 27.462 62.3891 27.462C62.6318 27.462 62.8091 27.518 62.9211 27.63C63.0425 27.7327 63.1031 27.91 63.1031 28.162C63.1031 29.2353 63.1685 30.6307 63.2991 32.348C63.7005 31.6573 64.0458 31.0273 64.3351 30.458C64.6338 29.8793 64.9558 29.1187 65.3011 28.176C65.4038 27.896 65.5391 27.7093 65.7071 27.616C65.8751 27.5133 66.0851 27.462 66.3371 27.462C66.8505 27.462 67.1071 27.6253 67.1071 27.952C67.1071 28.064 67.0698 28.218 66.9951 28.414C66.2391 30.178 65.5251 31.6013 64.8531 32.684C64.5265 33.216 64.2138 33.58 63.9151 33.776C63.6165 33.972 63.2898 34.07 62.9351 34.07Z" fill="#333333"/>
<path d="M31.3227 8.17656C31.518 8.37187 31.8346 8.37187 32.0299 8.17656L32.3833 7.82312C32.5786 7.62781 32.5786 7.31125 32.3833 7.11594L31.2671 6L32.383 4.88375C32.5783 4.68844 32.5783 4.37187 32.383 4.17656L32.0296 3.82312C31.8343 3.62781 31.5177 3.62781 31.3224 3.82312L29.4993 5.64625C29.304 5.84156 29.304 6.15812 29.4993 6.35344L31.3227 8.17656ZM34.323 7.82344L34.6765 8.17687C34.8718 8.37219 35.1883 8.37219 35.3836 8.17687L37.2068 6.35375C37.4021 6.15844 37.4021 5.84187 37.2068 5.64656L35.3836 3.82344C35.1883 3.62812 34.8718 3.62812 34.6765 3.82344L34.323 4.17687C34.1277 4.37219 34.1277 4.68875 34.323 4.88406L35.439 6L34.323 7.11625C34.1277 7.31156 34.1277 7.62812 34.323 7.82344ZM42.853 13H35.2761C35.253 13.6191 34.8165 14 34.253 14H32.353C31.769 14 31.3211 13.4541 31.329 13H23.853C23.578 13 23.353 13.225 23.353 13.5V14C23.353 15.1 24.253 16 25.353 16H41.353C42.453 16 43.353 15.1 43.353 14V13.5C43.353 13.225 43.128 13 42.853 13ZM41.353 1.5C41.353 0.675 40.678 0 39.853 0H26.853C26.028 0 25.353 0.675 25.353 1.5V12H41.353V1.5ZM39.353 10H27.353V2H39.353V10Z" fill="#333333"/>
</svg>
